<svg width="32" height="32" viewBox="0 0 32 32" fill="none" xmlns="http://www.w3.org/2000/svg">
<g clip-path="url(#clip0)">
<path fill-rule="evenodd" clip-rule="evenodd" d="M14.5574 15.549C15.2895 16.2026 16.1261 16.8431 17.0673 17.4706C17.015 17.5229 16.9104 17.6013 16.7536 17.7059C14.6228 19.3137 12.3026 20.5229 9.79275 21.3333C7.28295 22.1307 5.40059 22.634 4.14569 22.8431L9.6751 32C10.198 31.7124 11.0411 31.2091 12.2045 30.4902C13.3809 29.7712 14.7731 28.7908 16.381 27.549C17.9889 26.3072 19.3418 25.0327 20.4399 23.7255C21.3157 22.7059 22.1196 21.5555 22.8516 20.2745C23.832 20.6274 24.3941 20.8039 24.5379 20.8039L29.1065 12.7647C28.9104 12.8301 28.5379 12.915 27.9889 13.0196C27.4398 13.1242 26.7993 13.1895 26.0673 13.2157C26.6947 11.451 27.2307 9.67971 27.6751 7.902C28.1327 6.1111 28.466 4.6667 28.6751 3.5686C28.8974 2.45751 29.0411 1.69281 29.1065 1.27451C28.8451 1.73203 28.381 2.51634 27.7143 3.62749C27.0477 4.7386 26.1588 6.1242 25.0477 7.7843C23.9497 9.44441 22.7863 11.0654 21.5575 12.6471C19.9104 12.1634 18.4529 11.4118 17.185 10.3922C15.5901 9.1111 14.1064 7.7255 12.7339 6.2353C11.3745 4.732 10.2764 3.43139 9.43981 2.33333C8.61628 1.22222 8.05419 0.44445 7.75354 0C7.80582 1.13726 8.14569 2.96732 8.77314 5.4902C9.40059 8 10.6555 10.5882 12.5378 13.2549C13.1653 14.1176 13.8385 14.8823 14.5574 15.549Z" fill="#B41A1A"/>
</g>
<defs>
<clipPath id="clip0">
<rect width="32" height="32" fill="white"/>
</clipPath>
</defs>
</svg>
