<svg width="20" height="20" viewBox="0 0 20 20" fill="none" xmlns="http://www.w3.org/2000/svg">
<circle cx="10" cy="10" r="10" fill="#57BB63"/>
<path d="M4 16L4.844 12.919C4.324 12.017 4.05 10.994 4.05 9.946C4.051 6.667 6.718 4 9.996 4C11.587 4.001 13.08 4.62 14.202 5.744C15.325 6.868 15.943 8.362 15.942 9.951C15.941 13.23 13.273 15.897 9.996 15.897C9.001 15.897 8.02 15.647 7.152 15.173L4 16ZM7.298 14.097C8.136 14.594 8.936 14.893 9.994 14.893C12.718 14.893 14.937 12.676 14.938 9.951C14.939 7.22 12.73 5.006 9.998 5.005C7.272 5.005 5.055 7.222 5.054 9.947C5.054 11.059 5.38 11.893 5.927 12.764L5.428 14.588L7.298 14.097ZM12.992 11.365C12.955 11.303 12.856 11.266 12.707 11.191C12.558 11.117 11.828 10.757 11.692 10.708C11.556 10.658 11.457 10.634 11.358 10.782C11.259 10.931 10.974 11.265 10.888 11.365C10.801 11.464 10.715 11.477 10.566 11.402C10.417 11.328 9.939 11.171 9.371 10.665C8.929 10.271 8.631 9.784 8.544 9.636C8.457 9.487 8.535 9.407 8.609 9.333L8.832 9.073L8.981 8.825C9.031 8.726 9.006 8.639 8.969 8.565L8.511 7.462C8.39 7.172 8.268 7.212 8.177 7.207L7.891 7.2C7.792 7.2 7.631 7.237 7.495 7.386C7.359 7.535 6.975 7.894 6.975 8.626C6.975 9.357 7.507 10.064 7.582 10.163C7.656 10.262 8.63 11.763 10.12 12.406C10.474 12.559 10.751 12.651 10.967 12.719C11.323 12.832 11.647 12.816 11.903 12.778C12.188 12.735 12.782 12.419 12.906 12.072C13.029 11.724 13.029 11.427 12.992 11.365Z" fill="white"/>
</svg>
