<svg width="116" height="35" viewBox="0 0 116 35" fill="none" xmlns="http://www.w3.org/2000/svg">
<path d="M14.1455 18.9678C13.1611 18.3115 12.2861 17.6416 11.5205 16.958C10.7686 16.2607 10.0645 15.4609 9.4082 14.5586C7.43945 11.7695 6.12695 9.0625 5.4707 6.4375C4.81445 3.79883 4.45898 1.88477 4.4043 0.695312C4.71875 1.16016 5.30664 1.97363 6.16797 3.13574C7.04297 4.28418 8.19141 5.64453 9.61328 7.2168C11.0488 8.77539 12.6006 10.2246 14.2686 11.5645C15.5947 12.6309 17.1191 13.417 18.8418 13.9229C20.127 12.2686 21.3438 10.5732 22.4922 8.83691C23.6543 7.10059 24.584 5.65137 25.2812 4.48926C25.9785 3.32715 26.4639 2.50684 26.7373 2.02832C26.6689 2.46582 26.5186 3.26562 26.2861 4.42773C26.0674 5.57617 25.7188 7.08691 25.2402 8.95996C24.7754 10.8193 24.2148 12.6719 23.5586 14.5176C24.3242 14.4902 24.9941 14.4219 25.5684 14.3125C26.1426 14.2031 26.5322 14.1143 26.7373 14.0459L21.959 22.4541C21.8086 22.4541 21.2207 22.2695 20.1953 21.9004C19.4297 23.2402 18.5889 24.4434 17.6729 25.5098C16.5244 26.877 15.1094 28.21 13.4277 29.5088C11.7461 30.8076 10.29 31.833 9.05957 32.585C7.84277 33.3369 6.96094 33.8633 6.41406 34.1641L0.630859 24.5869C1.94336 24.3682 3.91211 23.8418 6.53711 23.0078C9.16211 22.1602 11.5889 20.8955 13.8174 19.2139C13.9814 19.1045 14.0908 19.0225 14.1455 18.9678ZM44.1484 21.1826C43.9844 20.8135 43.7451 20.3691 43.4307 19.8496C42.8701 18.9473 41.9609 17.9355 40.7031 16.8145C39.8418 18.332 39.2266 19.4258 38.8574 20.0957C38.502 20.7656 38.0918 21.6338 37.627 22.7002C39.2539 22.5088 41.4277 22.0029 44.1484 21.1826ZM36.458 27.2324C36.4307 27.8203 36.417 28.7158 36.417 29.9189C36.417 30.8623 36.4375 31.7236 36.4785 32.5029C36.5195 33.2822 36.5537 33.8359 36.5811 34.1641L28.9521 32.5645C28.9932 32.1816 29.082 31.5732 29.2188 30.7393C29.3555 29.9053 29.5742 28.8662 29.875 27.6221C29.1094 27.5537 28.4258 27.4648 27.8242 27.3555C27.2363 27.2461 26.8262 27.1641 26.5938 27.1094L28.4395 20.9775C28.6855 21.0869 29.1572 21.2646 29.8545 21.5107C30.5518 21.7432 31.2285 21.9414 31.8848 22.1055C32.1582 21.627 32.5205 21.0869 32.9717 20.4854C34.0654 19.1455 36.0684 17.4365 38.9805 15.3584C38.4746 14.9619 38.0713 14.6543 37.7705 14.4355C37.4697 14.2031 37.2373 14.0254 37.0732 13.9023C36.9092 13.7793 36.7861 13.6904 36.7041 13.6357L44.8252 9.39062C45.1396 9.80078 45.6113 10.5117 46.2402 11.5234C46.8828 12.5215 47.5596 13.8066 48.2705 15.3789C48.9951 16.9512 49.4395 18.4961 49.6035 20.0137C49.6309 20.2324 49.6445 20.5674 49.6445 21.0186C49.6445 22.249 49.4668 23.6094 49.1113 25.0996C48.7559 26.5762 48.3594 27.8955 47.9219 29.0576C47.498 30.2061 47.1016 31.1904 46.7324 32.0107C46.3633 32.8311 46.1035 33.3984 45.9531 33.7129V32.6055C45.9531 31.0195 45.8711 29.3584 45.707 27.6221C45.543 25.8721 45.208 24.2178 44.7021 22.6592C42.1045 24.6826 39.3564 26.207 36.458 27.2324ZM58.75 17.0811C58.5039 17.1084 58.1279 17.1221 57.6221 17.1221C56.0498 17.1221 54.4775 16.9717 52.9053 16.6709C51.333 16.3564 50.1777 16.0967 49.4395 15.8916L53.2129 9.71875C53.7324 9.97852 54.5459 10.334 55.6533 10.7852C56.7607 11.2363 58.0049 11.6123 59.3857 11.9131C59.4541 11.3799 59.4951 10.9697 59.5088 10.6826C59.5225 10.3818 59.543 9.97852 59.5703 9.47266C59.6113 8.95313 59.6318 8.65234 59.6318 8.57031C59.6318 8.47461 59.6318 8.39941 59.6318 8.34473C59.7549 8.60449 59.9873 9.08984 60.3291 9.80078C60.6709 10.498 61.04 11.2842 61.4365 12.1592C63.9795 12.1592 66.2832 11.9746 68.3477 11.6055C70.4258 11.2363 71.9023 10.9287 72.7773 10.6826C71.8887 11.2842 70.4873 12.1455 68.5732 13.2666C66.6729 14.374 64.7178 15.3105 62.708 16.0762C63.4189 18.373 63.7949 20.3008 63.8359 21.8594C63.8359 23.3633 63.5283 25.0381 62.9131 26.8838C62.3115 28.7295 61.7168 30.2539 61.1289 31.457C60.5547 32.6465 60.1172 33.4941 59.8164 34L52.6592 30.4316C53.2061 29.8984 53.9785 28.9414 54.9766 27.5605C55.9746 26.166 56.8291 24.3818 57.54 22.208C57.9365 21.0186 58.3398 19.3096 58.75 17.0811ZM80.1602 17.0811C79.9141 17.1084 79.5381 17.1221 79.0322 17.1221C77.46 17.1221 75.8877 16.9717 74.3154 16.6709C72.7432 16.3564 71.5879 16.0967 70.8496 15.8916L74.623 9.71875C75.1426 9.97852 75.9561 10.334 77.0635 10.7852C78.1709 11.2363 79.415 11.6123 80.7959 11.9131C80.8643 11.3799 80.9053 10.9697 80.9189 10.6826C80.9326 10.3818 80.9531 9.97852 80.9805 9.47266C81.0215 8.95313 81.042 8.65234 81.042 8.57031C81.042 8.47461 81.042 8.39941 81.042 8.34473C81.165 8.60449 81.3975 9.08984 81.7393 9.80078C82.0811 10.498 82.4502 11.2842 82.8467 12.1592C85.3896 12.1592 87.6934 11.9746 89.7578 11.6055C91.8359 11.2363 93.3125 10.9287 94.1875 10.6826C93.2988 11.2842 91.8975 12.1455 89.9834 13.2666C88.083 14.374 86.1279 15.3105 84.1182 16.0762C84.8291 18.373 85.2051 20.3008 85.2461 21.8594C85.2461 23.3633 84.9385 25.0381 84.3232 26.8838C83.7217 28.7295 83.127 30.2539 82.5391 31.457C81.9648 32.6465 81.5273 33.4941 81.2266 34L74.0693 30.4316C74.6162 29.8984 75.3887 28.9414 76.3867 27.5605C77.3848 26.166 78.2393 24.3818 78.9502 22.208C79.3467 21.0186 79.75 19.3096 80.1602 17.0811ZM109.896 21.1826C109.732 20.8135 109.493 20.3691 109.179 19.8496C108.618 18.9473 107.709 17.9355 106.451 16.8145C105.59 18.332 104.975 19.4258 104.605 20.0957C104.25 20.7656 103.84 21.6338 103.375 22.7002C105.002 22.5088 107.176 22.0029 109.896 21.1826ZM102.206 27.2324C102.179 27.8203 102.165 28.7158 102.165 29.9189C102.165 30.8623 102.186 31.7236 102.227 32.5029C102.268 33.2822 102.302 33.8359 102.329 34.1641L94.7002 32.5645C94.7412 32.1816 94.8301 31.5732 94.9668 30.7393C95.1035 29.9053 95.3223 28.8662 95.623 27.6221C94.8574 27.5537 94.1738 27.4648 93.5723 27.3555C92.9844 27.2461 92.5742 27.1641 92.3418 27.1094L94.1875 20.9775C94.4336 21.0869 94.9053 21.2646 95.6025 21.5107C96.2998 21.7432 96.9766 21.9414 97.6328 22.1055C97.9062 21.627 98.2686 21.0869 98.7197 20.4854C99.8135 19.1455 101.816 17.4365 104.729 15.3584C104.223 14.9619 103.819 14.6543 103.519 14.4355C103.218 14.2031 102.985 14.0254 102.821 13.9023C102.657 13.7793 102.534 13.6904 102.452 13.6357L110.573 9.39062C110.888 9.80078 111.359 10.5117 111.988 11.5234C112.631 12.5215 113.308 13.8066 114.019 15.3789C114.743 16.9512 115.188 18.4961 115.352 20.0137C115.379 20.2324 115.393 20.5674 115.393 21.0186C115.393 22.249 115.215 23.6094 114.859 25.0996C114.504 26.5762 114.107 27.8955 113.67 29.0576C113.246 30.2061 112.85 31.1904 112.48 32.0107C112.111 32.8311 111.852 33.3984 111.701 33.7129V32.6055C111.701 31.0195 111.619 29.3584 111.455 27.6221C111.291 25.8721 110.956 24.2178 110.45 22.6592C107.853 24.6826 105.104 26.207 102.206 27.2324Z" fill="#B41A1A"/>
</svg>
